<!--?xml version="1.0" encoding="utf-8"?-->
<!-- Generator: Adobe Illustrator 18.0.0, SVG Export Plug-In . SVG Version: 6.00 Build 0)  -->

<svg version="1.1" id="_x32_" xmlns="http://www.w3.org/2000/svg" xmlns:xlink="http://www.w3.org/1999/xlink" x="0px" y="0px" viewBox="0 0 512 512" style="width: 256px; height: 256px; opacity: 1;" xml:space="preserve">
<style type="text/css">
	.st0{fill:#4B4B4B;}
</style>
<g>
	<path class="st0" d="M285.295,344.076c-20.178,18.955-27.346,20.475-29.08,20.482c-0.562-1.086-2.431-6.767,3.394-28.668
		c4.225-15.889,10.811-34.356,16.621-50.65c4.088-11.463,7.618-21.362,9.518-28.143c4.885-17.441,4.367-29.732-1.58-37.574
		c-2.762-3.641-8.085-7.981-17.772-7.981c-21.268,0-51.445,21.508-61.232,39.116c-5.885,10.588-3.982,17.855-1.35,22.088
		l4.129,6.645l5.595-5.469c16.352-15.979,23.306-19.26,25.635-19.926c2.043,8.123-8.694,40.033-14.582,57.529
		c-3.385,10.061-6.582,19.561-8.65,27.084c-7.431,27.035-7.352,45.022,0.241,54.982c4.055,5.32,10.137,8.131,17.59,8.131
		c23.787,0,56.069-27.977,68.846-40.004l4.774-4.496l-17.715-17.26L285.295,344.076z" style="fill: rgb(255, 255, 255);"></path>
	<circle class="st0" cx="275.594" cy="145.391" r="35.115" style="fill: rgb(255, 255, 255);"></circle>
	<path class="st0" d="M256,0C114.615,0,0,114.615,0,256s114.615,256,256,256s256-114.615,256-256S397.385,0,256,0z M448,256
		c0,105.869-86.131,192-192,192S64,361.869,64,256S150.131,64,256,64S448,150.131,448,256z" style="fill: rgb(255, 255, 255);"></path>
</g>
</svg>
